#!OML:ASF F:\VICON\USERDATA\INSTALL\rory3\rory3.ASF
:FULLY-SPECIFIED
:DEGREES
400
root 8.79525 17.6213 13.5241 269.371 84.524 269.993
lowerback 10.0837 3.08923 3.92167
upperback -0.355449 4.60892 0.207109
thorax -5.73299 2.16126 -2.65752
lowerneck -19.8744 -5.90585 -11.291
upperneck 29.5332 -6.33281 6.79135
head 14.0218 -2.91854 3.55844
rclavicle -1.87603e-014 -1.31198e-014
rhumerus -23.9832 -7.12233 -82.8383
rradius 36.185
rwrist 4.29312
rhand -16.4301 11.9472
rfingers 7.12502
rthumb 9.78519 -17.8054
lclavicle -1.87603e-014 -1.31198e-014
lhumerus -37.828 5.59702 80.1385
lradius 28.9857
lwrist -8.69597
lhand -17.0742 27.4841
lfingers 7.12502
lthumb 9.16378 57.265
rfemur 14.3443 3.68493 30.4454
rtibia 13.3739
rfoot -15.8401 -2.74206
rtoes 0.237032
lfemur -25.4473 -4.78092 -11.7463
ltibia 17.1914
lfoot -4.4335 -0.878796
ltoes -2.30928
401
root 8.9603 17.604 13.4973 269.147 84.4221 269.813
lowerback 10.0133 3.11104 4.04755
upperback -0.360531 4.65254 0.249368
thorax -5.68954 2.18103 -2.68463
lowerneck -19.8935 -5.89952 -11.2837
upperneck 29.6251 -6.30467 6.73866
head 14.0605 -2.91144 3.54372
rclavicle -1.47846e-014 -7.55382e-015
rhumerus -24.1326 -7.20573 -82.7781
rradius 36.4722
rwrist 4.23534
rhand -16.5066 11.9226
rfingers 7.12502
rthumb 9.71138 -17.8335
lclavicle -1.47846e-014 -7.55382e-015
lhumerus -37.8772 5.59526 80.2168
lradius 28.6725
lwrist -8.70081
lhand -17.6756 27.5345
lfingers 7.12502
lthumb 8.58338 57.34
rfemur 15.1616 3.82864 30.5865
rtibia 13.0492
rfoot -15.3863 -2.94851
rtoes -1.12688
lfemur -25.324 -4.86939 -11.763
ltibia 18.1231
lfoot -4.09517 -0.899928
ltoes -1.14936
402
root 9.12588 17.5988 13.4714 269.417 84.2606 270.103
lowerback 9.97761 3.10676 4.29815
upperback -0.418179 4.67627 0.249888
thorax -5.70922 2.18379 -2.82632
lowerneck -19.8237 -5.8664 -11.2179
upperneck 29.6229 -6.26225 6.66874
head 14.0336 -2.8956 3.51264
rclavicle -6.78601e-014 -9.14409e-015
rhumerus -24.3443 -7.23561 -82.8432
rradius 36.7415
rwrist 4.14188
rhand -16.7318 11.8458
rfingers 7.12502
rthumb 9.49409 -17.9203
lclavicle -6.78601e-014 -9.14409e-015
lhumerus -37.975 5.60825 80.1494
lradius 28.3592
lwrist -8.92869
lhand -18.1196 27.8031
lfingers 7.12502
lthumb 8.15489 57.6258
rfemur 15.7561 4.02646 30.8087
rtibia 13.049
rfoot -14.9723 -3.21266
rtoes -2.51693
lfemur -25.1751 -4.33212 -11.8901
ltibia 18.82
lfoot -2.87878 -1.50169
ltoes -1.64125
403
root 9.29284 17.6009 13.4453 269.644 84.2908 270.338
lowerback 9.94211 3.0972 4.31892
upperback -0.484868 4.6641 0.227492
thorax -5.75708 2.17403 -2.85988
lowerneck -19.7657 -5.78574 -11.1011
upperneck 29.6173 -6.10271 6.40866
head 13.9852 -2.84959 3.41625
rclavicle 7.20097e-014 1.27222e-014
rhumerus -24.5644 -7.3553 -82.9211
rradius 36.9301
rwrist 4.05439
rhand -16.9387 11.886
rfingers 7.12502
rthumb 9.2945 -17.8891
lclavicle 7.20097e-014 1.27222e-014
lhumerus -38.1044 6.09453 79.8772
lradius 28.0452
lwrist -9.58367
lhand -17.9521 27.7714
lfingers 7.12502
lthumb 8.31652 57.5877
rfemur 16.1519 4.28066 30.8196
rtibia 13.4448
rfoot -14.6775 -3.34706
rtoes -2.76479
lfemur -25.0101 -3.9612 -12.1905
ltibia 19.2753
lfoot -0.860485 -1.96898
ltoes -3.23239
404
root 9.46448 17.5945 13.4189 269.6 84.5867 270.205
lowerback 9.76934 3.13216 4.0076
upperback -0.58845 4.66249 0.159773
thorax -5.78738 2.17858 -2.74967
lowerneck -19.7738 -5.72123 -10.8834
upperneck 29.7005 -5.91829 5.92091
head 13.9756 -2.81129 3.21591
rclavicle 3.6477e-014 5.96354e-015
rhumerus -24.8817 -7.55204 -82.9144
rradius 37.0664
rwrist 3.97053
rhand -16.9906 11.8572
rfingers 7.12502
rthumb 9.24439 -17.9201
lclavicle 3.6477e-014 5.96354e-015
lhumerus -38.2467 6.34915 79.7785
lradius 27.7734
lwrist -9.81185
lhand -17.8558 27.6554
lfingers 7.12502
lthumb 8.40952 57.468
rfemur 16.3854 4.49268 30.5254
rtibia 13.9887
rfoot -14.3276 -3.56013
rtoes -3.3291
lfemur -24.9345 -3.12127 -13.0462
ltibia 19.6076
lfoot 0.957383 -3.04479
ltoes -10.4399
405
root 9.64057 17.5876 13.3948 269.928 84.9721 270.427
lowerback 9.5438 3.22629 3.53887
upperback -0.710541 4.72105 0.0996557
thorax -5.81627 2.21788 -2.54922
lowerneck -19.7288 -5.73799 -10.8337
upperneck 29.8642 -5.88169 5.68911
head 14.0236 -2.82027 3.12467
rclavicle -4.77083e-015 1.59028e-014
rhumerus -25.2898 -7.61368 -82.8732
rradius 37.2196
rwrist 3.3826
rhand -17.3223 11.8107
rfingers 7.12502
rthumb 8.92429 -17.9805
lclavicle -4.77083e-015 1.59028e-014
lhumerus -38.3733 6.47393 79.8026
lradius 27.4247
lwrist -10.0913
lhand -17.5066 27.5092
lfingers 7.12502
lthumb 8.74653 57.308
rfemur 16.5506 4.80287 30.1895
rtibia 14.6649
rfoot -13.799 -3.95323
rtoes -5.58655
lfemur -24.8253 -1.01361 -14.4273
ltibia 19.8584
lfoot 1.38324 -5.91322
ltoes -21.0458
406
root 9.81806 17.6088 13.3721 268.9 85.4216 269.362
lowerback 9.37059 3.28011 3.04026
upperback -0.787058 4.72366 0.00446072
thorax -5.83002 2.23158 -2.36303
lowerneck -19.6517 -5.81911 -11.0588
upperneck 30.0688 -6.01512 5.96207
head 14.1314 -2.86437 3.2574
rclavicle 2.5519e-014 1.15295e-014
rhumerus -25.734 -7.72542 -82.8992
rradius 37.4621
rwrist 2.32727
rhand -17.4811 12.1013
rfingers 7.12502
rthumb 8.77113 -17.6964
lclavicle 2.5519e-014 1.15295e-014
lhumerus -38.4103 7.22796 79.4774
lradius 26.912
lwrist -11.2555
lhand -17.3666 27.1106
lfingers 7.12502
lthumb 8.88162 56.9037
rfemur 16.6692 5.07928 29.8309
rtibia 15.5558
rfoot -13.1512 -4.40144
rtoes -7.24777
lfemur -24.5504 -0.38629 -15.2229
ltibia 20.1111
lfoot 2.00638 -7.29906
ltoes -17.6599
407
root 9.99518 17.6455 13.3503 264.863 85.9242 265.416
lowerback 9.33623 3.26106 2.58588
upperback -0.791361 4.63429 -0.173587
thorax -5.84052 2.19852 -2.28201
lowerneck -19.6197 -5.89136 -11.1868
upperneck 30.1876 -6.17626 6.25465
head 14.2115 -2.90692 3.37411
rclavicle -3.68249e-014 4.37326e-015
rhumerus -26.0908 -8.23848 -82.9073
rradius 37.5554
rwrist 1.88259
rhand -17.1187 12.2229
rfingers 7.12502
rthumb 9.12076 -17.5599
lclavicle -3.68249e-014 4.37326e-015
lhumerus -38.3718 7.62597 79.216
lradius 26.4917
lwrist -12.0147
lhand -17.4565 27.0415
lfingers 7.12502
lthumb 8.79483 56.8383
rfemur 16.8504 5.18905 29.421
rtibia 16.5478
rfoot -12.43 -4.73309
rtoes -7.4406
lfemur -24.085 -1.49271 -15.4846
ltibia 20.4988
lfoot 3.20982 -6.26286
ltoes -3.6559
408
root 10.1705 17.6728 13.3289 258.937 86.3719 259.637
lowerback 9.33038 3.19589 2.10169
upperback -0.744587 4.4848 -0.292923
thorax -5.82262 2.13912 -2.11485
lowerneck -19.6034 -5.84447 -11.1457
upperneck 30.1456 -6.08889 6.15359
head 14.1739 -2.87877 3.34073
rclavicle 1.74434e-014 0
rhumerus -26.3565 -8.93716 -82.853
rradius 37.5166
rwrist 2.12747
rhand -17.0046 11.9564
rfingers 7.12502
rthumb 9.23088 -17.8215
lclavicle 1.74434e-014 0
lhumerus -38.2716 7.63958 79.2429
lradius 26.183
lwrist -11.8311
lhand -17.052 26.918
lfingers 7.12502
lthumb 9.18517 56.698
rfemur 16.9833 5.09169 28.97
rtibia 17.661
rfoot -11.5712 -4.88358
rtoes -7.03904
lfemur -23.6188 -1.77621 -16.144
ltibia 21.0109
lfoot 3.23973 -5.89548
ltoes 0.183166
409
root 10.3438 17.6922 13.3078 250.565 86.7131 251.442
lowerback 9.39581 3.08029 1.64151
upperback -0.717521 4.27422 -0.389785
thorax -5.86665 2.04775 -1.93448
lowerneck -19.5894 -5.80439 -11.1888
upperneck 30.1424 -5.99014 6.07977
head 14.1577 -2.85167 3.33618
rclavicle -2.5345e-015 -1.19271e-014
rhumerus -26.7271 -9.26512 -82.8683
rradius 37.5077
rwrist 2.00644
rhand -17.0904 11.7439
rfingers 7.12502
rthumb 9.14807 -18.0377
lclavicle -2.5345e-015 -1.19271e-014
lhumerus -38.2536 8.13502 79.0734
lradius 25.9085
lwrist -11.967
lhand -16.9281 27.3801
lfingers 7.12502
lthumb 9.30473 57.1548
rfemur 16.8953 4.8879 28.5675
rtibia 19.1844
rfoot -10.6394 -5.09233
rtoes -6.93046
lfemur -23.0921 -1.44855 -17.0217
ltibia 21.4772
lfoot 2.86987 -6.48543
ltoes -0.805129
410
root 10.5122 17.7136 13.2831 241.376 86.811 242.384
lowerback 9.49343 2.94776 1.41648
upperback -0.743333 4.06835 -0.481238
thorax -5.96616 1.9501 -1.8833
lowerneck -19.5512 -5.79548 -11.219
upperneck 30.2373 -5.98057 6.11827
head 14.193 -2.84494 3.36277
rclavicle -3.16813e-014 8.74653e-015
rhumerus -27.1746 -9.59572 -82.8733
rradius 37.4025
rwrist 1.66452
rhand -17.1228 11.8021
rfingers 7.12502
rthumb 9.11687 -17.9809
lclavicle -3.16813e-014 8.74653e-015
lhumerus -38.2404 8.62579 78.8459
lradius 25.575
lwrist -12.1546
lhand -17.4083 27.4788
lfingers 7.12502
lthumb 8.84133 57.2736
rfemur 16.4672 4.65705 28.3314
rtibia 21.1512
rfoot -9.59118 -5.29523
rtoes -6.50978
lfemur -22.5512 -1.66007 -17.557
ltibia 21.8457
lfoot 2.62877 -6.85656
ltoes 1.46187
411
root 10.6781 17.7373 13.2497 234.481 86.7397 235.44
lowerback 9.42344 2.86626 1.41978
upperback -0.814663 3.9562 -0.532195
thorax -6.0022 1.89278 -1.92106
lowerneck -19.5739 -5.85312 -11.3353
upperneck 30.4156 -6.09369 6.33976
head 14.3035 -2.87435 3.45899
rclavicle 2.20154e-014 -9.14409e-015
rhumerus -27.6042 -10.283 -82.783
rradius 37.2003
rwrist 1.45672
rhand -17.4642 11.6822
rfingers 7.12502
rthumb 8.78742 -18.1149
lclavicle 2.20154e-014 -9.14409e-015
lhumerus -38.1886 8.73392 78.8571
lradius 25.2853
lwrist -12.0442
lhand -17.6293 27.4346
lfingers 7.12502
lthumb 8.62813 57.2383
rfemur 15.5982 4.28941 28.1068
rtibia 23.4427
rfoot -8.3985 -5.2913
rtoes -6.17225
lfemur -22.1453 -1.96706 -17.9226
ltibia 22.1203
lfoot 2.24563 -7.33837
ltoes 1.56777
412
root 10.8453 17.7593 13.2162 229.975 86.6185 230.94
lowerback 9.32443 2.78177 1.53424
upperback -0.810528 3.85296 -0.56962
thorax -5.93571 1.83899 -2.00345
lowerneck -19.6776 -5.93415 -11.5367
upperneck 30.5491 -6.23346 6.64179
head 14.4233 -2.91438 3.59618
rclavicle -2.09966e-014 9.14409e-015
rhumerus -27.9502 -11.0064 -82.7324
rradius 37.0037
rwrist 1.44143
rhand -17.6314 11.5823
rfingers 7.12502
rthumb 8.62608 -18.2215
lclavicle -2.09966e-014 9.14409e-015
lhumerus -38.1112 9.02311 78.7696
lradius 25.0443
lwrist -12.403
lhand -17.4253 27.5439
lfingers 7.12502
lthumb 8.82496 57.3394
rfemur 14.6381 3.81557 27.8895
rtibia 25.9399
rfoot -6.85667 -5.12798
rtoes -5.29053
lfemur -21.6325 -1.98494 -18.2392
ltibia 22.3086
lfoot 1.70429 -7.84462
ltoes 0.598854
413
root 11.0093 17.7826 13.1891 226.6 86.5439 227.746
lowerback 9.43378 2.7287 1.62399
upperback -0.762467 3.78955 -0.651097
thorax -5.9382 1.80412 -2.13446
lowerneck -19.7122 -5.91237 -11.386
upperneck 30.4601 -6.20535 6.49873
head 14.3749 -2.90491 3.51234
rclavicle 2.25124e-014 1.59028e-015
rhumerus -28.3695 -11.9175 -82.5816
rradius 36.8203
rwrist 2.33903
rhand -16.8954 11.5616
rfingers 7.12502
rthumb 9.33626 -18.2116
lclavicle 2.25124e-014 1.59028e-015
lhumerus -37.9987 9.11082 78.6597
lradius 24.8813
lwrist -12.7349
lhand -17.0562 27.7001
lfingers 7.12502
lthumb 9.1811 57.4803
rfemur 13.7373 3.33352 27.6558
rtibia 28.5514
rfoot -4.95843 -4.95355
rtoes -3.34905
lfemur -20.8955 -1.87488 -18.536
ltibia 22.4323
lfoot 1.13584 -8.1236
ltoes 0.341182
